<svg width="37" height="40" viewBox="0 0 37 40" fill="none" xmlns="http://www.w3.org/2000/svg">
<path d="M6.83337 31.1537V16.667C6.83337 16.2404 6.92893 15.8365 7.12004 15.4554C7.31115 15.0743 7.57449 14.7604 7.91004 14.5137L16.885 7.71704C17.355 7.35816 17.8917 7.17871 18.495 7.17871C19.0984 7.17871 19.6384 7.35816 20.115 7.71704L29.09 14.512C29.4267 14.7587 29.69 15.0732 29.88 15.4554C30.0712 15.8365 30.1667 16.2404 30.1667 16.667V31.1537C30.1667 31.6004 30.0006 31.9898 29.6684 32.322C29.3362 32.6543 28.9467 32.8204 28.5 32.8204H22.86C22.4778 32.8204 22.1578 32.6915 21.9 32.4337C21.6423 32.1748 21.5134 31.8548 21.5134 31.4737V23.5254C21.5134 23.1443 21.3845 22.8248 21.1267 22.567C20.8678 22.3082 20.5478 22.1787 20.1667 22.1787H16.8334C16.4523 22.1787 16.1328 22.3082 15.875 22.567C15.6162 22.8248 15.4867 23.1443 15.4867 23.5254V31.4754C15.4867 31.8565 15.3578 32.1759 15.1 32.4337C14.8423 32.6915 14.5228 32.8204 14.1417 32.8204H8.50004C8.05337 32.8204 7.66393 32.6543 7.33171 32.322C6.99948 31.9898 6.83337 31.6004 6.83337 31.1537Z" fill="#E6E7E8"/>
</svg>
