<svg width="41" height="40" viewBox="0 0 41 40" fill="none" xmlns="http://www.w3.org/2000/svg">
<path d="M31.1667 8H9.16666C8.63623 8 8.12752 8.21071 7.75245 8.58579C7.37738 8.96086 7.16666 9.46957 7.16666 10V30C7.16436 30.3814 7.27225 30.7553 7.47736 31.0768C7.68248 31.3984 7.97609 31.6538 8.32291 31.8125C8.5872 31.9356 8.87513 31.9995 9.16666 32C9.63615 31.9988 10.09 31.8314 10.4479 31.5275L10.4592 31.5187L14.5417 28H31.1667C31.6971 28 32.2058 27.7893 32.5809 27.4142C32.9559 27.0391 33.1667 26.5304 33.1667 26V10C33.1667 9.46957 32.9559 8.96086 32.5809 8.58579C32.2058 8.21071 31.6971 8 31.1667 8ZM14.6667 19.5C14.37 19.5 14.08 19.412 13.8333 19.2472C13.5866 19.0824 13.3944 18.8481 13.2808 18.574C13.1673 18.2999 13.1376 17.9983 13.1955 17.7074C13.2534 17.4164 13.3962 17.1491 13.606 16.9393C13.8158 16.7296 14.0831 16.5867 14.374 16.5288C14.665 16.4709 14.9666 16.5006 15.2407 16.6142C15.5148 16.7277 15.749 16.92 15.9139 17.1666C16.0787 17.4133 16.1667 17.7033 16.1667 18C16.1667 18.3978 16.0086 18.7794 15.7273 19.0607C15.446 19.342 15.0645 19.5 14.6667 19.5ZM20.1667 19.5C19.87 19.5 19.58 19.412 19.3333 19.2472C19.0866 19.0824 18.8944 18.8481 18.7808 18.574C18.6673 18.2999 18.6376 17.9983 18.6955 17.7074C18.7534 17.4164 18.8962 17.1491 19.106 16.9393C19.3158 16.7296 19.5831 16.5867 19.874 16.5288C20.165 16.4709 20.4666 16.5006 20.7407 16.6142C21.0148 16.7277 21.249 16.92 21.4139 17.1666C21.5787 17.4133 21.6667 17.7033 21.6667 18C21.6667 18.3978 21.5086 18.7794 21.2273 19.0607C20.946 19.342 20.5645 19.5 20.1667 19.5ZM25.6667 19.5C25.37 19.5 25.08 19.412 24.8333 19.2472C24.5866 19.0824 24.3944 18.8481 24.2808 18.574C24.1673 18.2999 24.1376 17.9983 24.1955 17.7074C24.2534 17.4164 24.3962 17.1491 24.606 16.9393C24.8158 16.7296 25.0831 16.5867 25.374 16.5288C25.665 16.4709 25.9666 16.5006 26.2407 16.6142C26.5148 16.7277 26.749 16.92 26.9139 17.1666C27.0787 17.4133 27.1667 17.7033 27.1667 18C27.1667 18.3978 27.0086 18.7794 26.7273 19.0607C26.446 19.342 26.0645 19.5 25.6667 19.5Z" fill="#E6E7E8"/>
</svg>
