<svg width="100" height="100" viewBox="0 0 100 100" fill="none" xmlns="http://www.w3.org/2000/svg">
<path d="M49.9532 8.74298C48.7469 8.74298 47.5405 9.01329 46.6061 9.55392L16.7715 26.8117C14.9024 27.893 14.9024 29.6027 16.7715 30.684L46.6061 47.9418C48.4752 49.0231 51.4309 49.0231 53.2999 47.9418L83.1344 30.684C85.0036 29.6029 85.0036 27.893 83.1344 26.8119L53.2999 9.55411C52.3653 9.0131 51.1592 8.74298 49.9532 8.74298ZM49.7922 19.116C51.5527 19.135 53.1353 19.5382 54.5403 20.3254C55.5012 20.8639 56.1305 21.4784 56.4282 22.1688C56.7159 22.8538 56.7329 23.7565 56.479 24.8768L56.1665 25.9912C55.9594 26.7887 55.9165 27.3623 56.0375 27.7119C56.1487 28.0563 56.4249 28.3522 56.8661 28.5994L57.5282 28.9701L51.037 32.6069L50.3157 32.2031C49.5115 31.7527 48.9983 31.2436 48.776 30.6758C48.544 30.1026 48.5827 29.1908 48.892 27.9404L49.1897 26.8178C49.3629 26.1492 49.3798 25.6011 49.2405 25.1736C49.1129 24.7393 48.8236 24.3957 48.3725 24.143C47.6859 23.7583 46.8637 23.6201 45.9057 23.7283C44.9379 23.8312 43.9385 24.1714 42.9077 24.7488C41.9367 25.2929 41.0545 25.9738 40.2612 26.7918C39.4582 27.6047 38.7689 28.5349 38.1934 29.5824L33.5743 26.9942C34.6129 25.9512 35.6335 25.0389 36.636 24.2572C37.6386 23.476 38.6973 22.7729 39.8122 22.1479C42.7372 20.5091 45.4572 19.5346 47.9723 19.2246C48.5759 19.1473 49.1841 19.111 49.7926 19.1158L49.7922 19.116ZM59.7057 30.1902L64.943 33.1246L58.4518 36.7613L53.2143 33.8272L59.7057 30.1902ZM14.7793 33.9531C13.6557 33.9229 12.8918 34.8 12.8918 36.3516V67.1516C12.8918 69.3102 14.3704 71.8709 16.2395 72.9504L44.9368 89.5223C46.8059 90.6016 48.2844 89.7481 48.2844 87.5897V56.7891C48.2844 54.6305 46.8059 52.0703 44.9368 50.9906L16.2395 34.419C15.7141 34.1152 15.219 33.9645 14.7793 33.9527V33.9531ZM85.2428 33.9535C84.8034 33.9653 84.3086 34.1156 83.7831 34.4194L55.0848 50.991C53.2157 52.0705 51.7372 54.6313 51.7372 56.7899V87.5906C51.7372 89.7488 53.2157 90.602 55.0848 89.5223L83.7832 72.9512C85.6524 71.8717 87.1303 69.3113 87.1303 67.1527V36.352C87.1303 34.8008 86.3666 33.9238 85.2428 33.9539V33.9535ZM22.4411 46.4051C23.721 46.672 24.8899 46.9984 25.9477 47.3842C27.0081 47.7713 28.0328 48.25 29.0102 48.8149C31.5909 50.3051 33.5583 52.0031 34.9122 53.909C36.2661 55.8035 36.943 57.8244 36.943 59.9715C36.943 61.0731 36.7368 61.9431 36.3243 62.5817C35.9116 63.209 35.2083 63.736 34.2141 64.1625L33.1985 64.5375C32.4792 64.8192 32.0085 65.1095 31.7864 65.4086C31.5644 65.696 31.4534 66.0926 31.4534 66.5985V67.3572L25.7258 64.05V63.2238C25.7257 62.302 25.9002 61.5878 26.2493 61.0813C26.5984 60.5634 27.3335 60.0773 28.4547 59.6229L29.4704 59.2311C30.0732 58.9947 30.5122 58.6974 30.7872 58.3391C31.0724 57.987 31.2152 57.5524 31.2153 57.0352C31.2153 56.2486 30.9614 55.4895 30.4536 54.7578C29.9459 54.015 29.2372 53.3809 28.3276 52.8555C27.4708 52.361 26.5452 52.0177 25.5508 51.8258C24.5566 51.6227 23.52 51.5807 22.4411 51.6998V46.4051ZM75.0856 48.0862C75.3827 48.0862 75.6582 48.1182 75.9122 48.1824C77.2661 48.5136 77.943 49.7527 77.943 51.9C77.943 53.0016 77.7368 54.1098 77.3243 55.2248C76.9118 56.3285 76.2084 57.6675 75.2141 59.242L74.1985 60.7897C73.4792 61.9019 73.0085 62.7357 72.7864 63.291C72.5644 63.835 72.4534 64.36 72.4534 64.8658V65.6246L66.7258 68.9317V68.1055C66.7258 67.1836 66.9003 66.2678 67.2493 65.358C67.5986 64.4371 68.3338 63.1022 69.4547 61.3533L70.4704 59.7889C71.0732 58.8561 71.5122 58.0518 71.7872 57.376C72.0724 56.694 72.2152 56.0943 72.2153 55.5772C72.2153 54.7904 71.9615 54.3244 71.454 54.1791C70.9461 54.0227 70.2373 54.207 69.3276 54.7318C68.4708 55.2268 67.5454 55.9524 66.5512 56.9086C65.5571 57.8538 64.5205 59.0087 63.4415 60.3735V55.0785C64.7214 53.8676 65.89 52.8443 66.9473 52.0086C68.0054 51.1731 69.0262 50.4714 70.0098 49.9037C72.107 48.6928 73.799 48.0869 75.086 48.086L75.0856 48.0862ZM25.7256 66.5461L31.4534 69.8527V75.8559L25.7258 72.5492V66.5463L25.7256 66.5461ZM72.4534 68.1203V74.1233L66.7258 77.4299V71.4274L72.4534 68.1203Z" fill="black"/>
</svg>
