<svg width="41" height="40" viewBox="0 0 41 40" fill="none" xmlns="http://www.w3.org/2000/svg">
<path fill-rule="evenodd" clip-rule="evenodd" d="M14.8334 13.3333C14.8334 11.9188 15.3953 10.5623 16.3955 9.5621C17.3957 8.5619 18.7523 8 20.1667 8C21.5812 8 22.9378 8.5619 23.938 9.5621C24.9382 10.5623 25.5001 11.9188 25.5001 13.3333C25.5001 14.7478 24.9382 16.1044 23.938 17.1046C22.9378 18.1048 21.5812 18.6667 20.1667 18.6667C18.7523 18.6667 17.3957 18.1048 16.3955 17.1046C15.3953 16.1044 14.8334 14.7478 14.8334 13.3333ZM14.8334 21.3333C13.0653 21.3333 11.3696 22.0357 10.1194 23.286C8.86913 24.5362 8.16675 26.2319 8.16675 28C8.16675 29.0609 8.58818 30.0783 9.33832 30.8284C10.0885 31.5786 11.1059 32 12.1667 32H28.1667C29.2276 32 30.245 31.5786 30.9952 30.8284C31.7453 30.0783 32.1667 29.0609 32.1667 28C32.1667 26.2319 31.4644 24.5362 30.2141 23.286C28.9639 22.0357 27.2682 21.3333 25.5001 21.3333H14.8334Z" fill="#E6E7E8"/>
</svg>
