<svg width="41" height="40" viewBox="0 0 41 40" fill="none" xmlns="http://www.w3.org/2000/svg">
<path d="M10.1666 6C7.96038 6 6.16663 7.79375 6.16663 10V30C6.16663 32.2062 7.96038 34 10.1666 34H30.1666C32.3729 34 34.1666 32.2062 34.1666 30V10C34.1666 7.79375 32.3729 6 30.1666 6H10.1666ZM14.1666 10V14H18.1666V10H22.1666V14H26.1666V10H30.1666V14H26.1666V18H30.1666V22H26.1666V26H30.1666V30H26.1666V26H22.1666V30H18.1666V26H14.1666V30H10.1666V26H14.1666V22H10.1666V18H14.1666V14H10.1666V10H14.1666ZM18.1666 18H22.1666V14H18.1666V18ZM18.1666 22V18H14.1666V22H18.1666ZM22.1666 22H18.1666V26H22.1666V22ZM22.1666 22H26.1666V18H22.1666V22Z" fill="#E6E7E8"/>
</svg>
